<?xml version="1.0" encoding="utf-8"?>
<!-- Generator: Adobe Illustrator 25.4.1, SVG Export Plug-In . SVG Version: 6.00 Build 0)  -->
<svg version="1.1" id="Capa_1" xmlns="http://www.w3.org/2000/svg" xmlns:xlink="http://www.w3.org/1999/xlink" x="0px" y="0px"
	 viewBox="0 0 548.2 294.8" style="enable-background:new 0 0 548.2 294.8;" xml:space="preserve">
<style type="text/css">
	.st0{fill:none;}
</style>
<polygon class="st0" points="336.8,156.9 389,156.9 363.3,106.7 "/>
<polygon class="st0" points="109.2,156.9 161.4,156.9 135.7,106.7 "/>
<polygon points="55,102.8 90.8,102.8 90.8,94.5 9.2,94.5 9.2,102.8 45,102.8 49.9,148.8 44.6,200.3 55.4,200.3 50.2,148.8 "/>
<path d="M141.4,94.5h-10.9l-23.3,66.6L90,200.3h12.1l3.8-34.9h58.8l4.7,34.9h12.4l-18.6-39.1L141.4,94.5z M109.2,156.9l26.4-50.2
	l25.7,50.2H109.2z"/>
<polygon points="274.3,156 245.5,94.5 233.1,94.5 269.7,147.4 269.7,200.3 278.8,200.3 278.8,147.4 315.4,94.5 303.3,94.5 "/>
<path d="M369,94.5h-10.9l-23.3,66.6l-17.2,39.1h12.1l3.8-34.9h58.8l4.7,34.9h12.4l-18.6-39.1L369,94.5z M336.8,156.9l26.4-50.2
	l25.7,50.2H336.8z"/>
<polygon points="503.9,94.5 491.6,94.5 435.2,149.2 440.5,94.5 429.6,94.5 435,155 429.6,200.3 440.5,200.3 434.9,160.2 
	451.1,144.8 494.6,200.3 506.4,200.3 457.7,138.5 "/>
<polygon points="207.6,130.4 212.9,94.5 202,94.5 207.3,130.4 202,164.4 207.5,200.3 212.9,164.4 "/>
<polygon points="533.7,164.4 539,200.3 528.1,200.3 533.4,164.4 528.1,130.4 533.6,94.5 539,130.4 "/>
</svg>
